# AST/ASF file generated using VICON BodyLanguage
# -----------------------------------------------
:version 1.10
:name VICON
:units
  mass 1.0
  length 0.45
  angle deg
:documentation
   .ast/.asf automatically generated from VICON data using
   VICON BodyBuilder and BodyLanguage model FoxedUp or BRILLIANT.MOD
:root
   order TX TY TZ RX RY RZ
   axis XYZ
   position 0 0 0  
   orientation 0 0 0 
:bonedata
  begin
     id 1 
     name lhipjoint
     direction 0.575328 -0.747301 0.332475 
     length 2.40933 
     axis 0 0 0  XYZ
  end
  begin
     id 2 
     name lfemur
     direction 0.34202 -0.939693 0  
     length 7.31453  
     axis 0 0 20  XYZ
    dof rx ry rz
    limits (-160.0 20.0)
           (-70.0 70.0)
           (-60.0 70.0)
  end
  begin
     id 3 
     name ltibia
     direction 0.34202 -0.939693 0   
     length 7.82185   
     axis 0 0 20   XYZ
    dof rx
    limits (-10.0 170.0)
  end
  begin
     id 4 
     name lfoot
     direction 0.0795993 -0.218697 0.972541   
     length 2.19173   
     axis -90 7.62852e-016 20   XYZ
    dof rx rz
    limits (-45.0 90.0)
           (-70.0 20.0)
  end
  begin
     id 5 
     name ltoes
     direction 1.53537e-011 -4.21894e-011 1   
     length 1.10023   
     axis -90 7.62852e-016 20   XYZ
    dof rx
    limits (-90.0 20.0)
  end
  begin
     id 6 
     name rhipjoint
     direction -0.513884 -0.783789 0.348708   
     length 2.29716  
     axis 0 0 0  XYZ 
  end
  begin
     id 7 
     name rfemur
     direction -0.34202 -0.939693 0   
     length 7.59573   
     axis 0 0 -20   XYZ
    dof rx ry rz
    limits (-160.0 20.0)
           (-70.0 70.0)
           (-70.0 60.0)
  end
  begin
     id 8 
     name rtibia
     direction -0.34202 -0.939693 0   
     length 7.66402   
     axis 0 0 -20   XYZ
    dof rx
    limits (-10.0 170.0)
 end
 begin
     id 9 
     name rfoot
     direction -0.137793 -0.378584 0.915253   
     length 2.27056  
     axis -90 -7.62852e-016 -20   XYZ
    dof rx rz
    limits (-45.0 90.0)
           (-20.0 70.0)
  end
  begin
     id 10 
     name rtoes
     direction -1.53493e-011 -4.22159e-011 1   
     length 1.11766   
     axis -90 -7.62852e-016 -20   XYZ
    dof rx
    limits (-90.0 20.0)
  end
  begin
     id 11 
     name lowerback
     direction -0.00732775 0.998356 -0.05685   
     length 2.16513   
     axis 0 0 0   XYZ
    dof rx ry rz
    limits (-20.0 45.0)
           (-30.0 30.0)
           (-30.0 30.0)
  end
  begin
     id 12 
     name upperback
     direction 0.0218081 0.999627 -0.0164647   
     length 2.16755   
     axis 0 0 0   XYZ
    dof rx ry rz
    limits (-20.0 45.0)
           (-30.0 30.0)
           (-30.0 30.0)
  end
  begin
     id 13 
     name thorax
     direction 0.02365 0.999661 0.0108914   
     length 2.16932   
     axis 0 0 0   XYZ
    dof rx ry rz
    limits (-20.0 45.0)
           (-30.0 30.0)
           (-30.0 30.0)
  end
  begin
     id 14 
     name lowerneck
     direction -0.0523929 0.978385 0.200044   
     length 1.63877   
     axis 0 0 0   XYZ
    dof rx ry rz
    limits (-20.0 45.0)
           (-30.0 30.0)
           (-30.0 30.0)
  end
  begin
     id 15 
     name upperneck
     direction 0.0448674 0.981321 -0.187074   
     length 1.69014   
     axis 0 0 0   XYZ
    dof rx ry rz
    limits (-20.0 45.0)
           (-30.0 30.0)
           (-30.0 30.0)
  end
  begin
     id 16
     name head
     direction 0.0199089 0.996118 -0.0857429  
     length 1.70094  
     axis 0 0 0   XYZ
    dof rx ry rz
    limits (-20.0 45.0)
           (-30.0 30.0)
           (-30.0 30.0)
  end
  begin
     id 17 
     name lclavicle
     direction 0.940366 0.30191 -0.156722  
     length 3.37521  
     axis 0 0 0   XYZ
    dof ry rz
    limits (-20.0 10.0)
           (0.0 20.0)
  end
  begin
     id 18 
     name lhumerus
     direction 1 -4.4897e-011 -1.7911e-027   
     length 5.25287   
     axis 180 -30 -90   XYZ
    dof rx ry rz
    limits (-60.0 90.0)
           (-90.0 90.0)
           (-90.0 90.0)
  end
  begin
     id 19
     name lradius
     direction 1 -4.48951e-011 1.04424e-027   
     length 3.51014   
     axis 180 -30 -90   XYZ
    dof rx
    limits (-10.0 170.0)
  end
  begin
     id 20
     name lwrist
     direction 1 -4.48997e-011 -9.5942e-028   
     length 1.75507   
     axis 8.48502e-016 90 90   XYZ
    dof ry
    limits (-180.0 0.0)
 end
  begin
     id 21 
     name lhand
     direction 1 -4.48831e-011 -1.90777e-027   
     length 0.706179   
     axis 1.22306e-015 90 90   XYZ
    dof rx rz
    limits (-90.0 90.0)
           (-45.0 45.0)
  end
  begin
     id 22 
     name lfingers
     direction 1 -4.49108e-011 -3.85244e-027   
     length 0.569339   
     axis 2.44611e-015 90 90   XYZ
    dof rx
    limits (0.0 90.0)
  end
  begin
     id 23
     name lthumb
     direction 0.707107 -6.34953e-011 0.707107   
     length 0.817461   
     axis -90 45 -1.62303e-014   XYZ
    dof rx rz
    limits (-45.0 45.0)
           (-45.0 45.0)
  end
  begin
     id 24 
     name rclavicle
     direction -0.905329 0.382405 -0.184787   
     length 3.30787  
     axis 0 0 0   XYZ 
    dof ry rz
    limits (-10.0 20.0)
           (-20.0 0.0)
  end
  begin
     id 25 
     name rhumerus
     direction -1 -4.48953e-011 -9.15316e-029  
     length 5.28721   
     axis 180 30 90   XYZ
    dof rx ry rz
    limits (-90.0 60.0)
           (-90.0 90.0)
           (-90.0 90.0)
  end
  begin
     id 26 
     name rradius
     direction -1 -4.48987e-011 9.37824e-028   
     length 3.50544   
     axis 180 30 90   XYZ
    dof rx
    limits (-10.0 170.0)
  end
  begin
     id 27 
     name rwrist
     direction -1 -4.48967e-011 -9.58414e-028   
     length 1.75272   
     axis 8.48502e-016 -90 -90   XYZ
    dof ry
    limits (-180.0 0.0)
  end
  begin
     id 28
     name rhand
     direction -1 -4.48904e-011 -1.91266e-027   
     length 0.884996   
     axis 1.22306e-015 -90 -90   XYZ
    dof rx rz
    limits (-90.0 90.0)
           (-45.0 45.0)
  end
  begin
     id 29
     name rfingers
     direction -1 -4.4909e-011 -3.85015e-027   
     length 0.713507   
     axis 2.44611e-015 -90 -90   XYZ
    dof rx
    limits (0.0 90.0)
  end
  begin
     id 30
     name rthumb
     direction -0.707107 -6.34853e-011 0.707107   
     length 1.02446   
     axis -90 -45 1.62303e-014   XYZ
    dof rx rz
    limits (-45.0 45.0)
           (-45.0 45.0)
  end
:hierarchy
  begin
    root lhipjoint rhipjoint lowerback
    lhipjoint lfemur
    lfemur ltibia
    ltibia lfoot
    lfoot ltoes
    rhipjoint rfemur
    rfemur rtibia
    rtibia rfoot
    rfoot rtoes
    lowerback upperback
    upperback thorax
    thorax lowerneck lclavicle rclavicle
    lowerneck upperneck
    upperneck head
    lclavicle lhumerus
    lhumerus lradius
    lradius lwrist
    lwrist lhand lthumb
    lhand lfingers
    rclavicle rhumerus
    rhumerus rradius
    rradius rwrist
    rwrist rhand rthumb
    rhand rfingers
  end

#!OML:ASF F:\twosubjects\two\Thursday\Session 1\justin.ASF
:FULLY-SPECIFIED
:DEGREES
65
root 7.68927 18.0645 -18.5327 1.66331 -81.2711 0.202718
lowerback 2.13632 0.915193 -1.48714
upperback -2.10676 1.20688 1.77473
thorax -3.43562 0.655683 2.60132
lowerneck -20.9898 5.23357 -3.98038
upperneck 24.2778 6.55554 7.31684
head 10.8933 3.50787 4.30905
rclavicle 7.50412e-015 -1.11319e-014
rhumerus 8.25074 -41.2311 -3.53802
rradius 62.4836
rwrist -18.66
rhand -26.7469 18.4243
rfingers 7.12502
rthumb -0.175632 -11.5554
lclavicle 7.50412e-015 -1.11319e-014
lhumerus 9.86624 32.2286 11.4941
lradius 66.1153
lwrist 5.54409
lhand -13.9366 40.2089
lfingers 7.12502
lthumb 12.1902 69.8337
rfemur -9.53949 3.30559 1.95509
rtibia 36.8297
rfoot 12.8394 -15.6079
rtoes -19.7184
lfemur -9.22909 -8.35512 2.56048
ltibia 30.1943
lfoot 15.9053 -7.09302
ltoes -22.9664
66
root 7.68082 18.2707 -18.5281 1.12007 -81.3387 1.02672
lowerback 1.70577 0.815675 -1.48867
upperback -1.97138 1.0759 1.75963
thorax -3.04467 0.585 2.59938
lowerneck -21.5194 5.3026 -4.06506
upperneck 24.4613 6.74398 7.16199
head 11.0524 3.56601 4.32691
rclavicle -5.29637e-014 -2.3059e-014
rhumerus 6.29468 -41.1419 -3.9397
rradius 61.2304
rwrist -17.7212
rhand -25.503 18.4303
rfingers 7.12502
rthumb 1.02573 -11.547
lclavicle -5.29637e-014 -2.3059e-014
lhumerus 7.15405 32.0653 12.1425
lradius 65.335
lwrist 6.36456
lhand -13.4927 40.1333
lfingers 7.12502
lthumb 12.6182 69.7322
rfemur -9.85659 2.75974 2.41602
rtibia 36.2134
rfoot 12.1118 -16.4624
rtoes -16.8917
lfemur -9.47793 -8.48571 1.72894
ltibia 29.7122
lfoot 16.1992 -6.49976
ltoes -22.1267
67
root 7.67893 18.4509 -18.526 1.53168 -81.4271 0.954422
lowerback 1.26179 0.777072 -1.33877
upperback -1.9384 1.02954 1.72523
thorax -2.75391 0.554664 2.48713
lowerneck -21.3192 5.26518 -3.9384
upperneck 24.0928 6.78048 6.70438
head 10.9008 3.54143 4.11734
rclavicle 1.53748e-014 -3.97569e-015
rhumerus 4.24816 -40.629 -4.37232
rradius 60.0736
rwrist -18.0298
rhand -24.4792 18.1707
rfingers 7.12502
rthumb 2.01457 -11.7996
lclavicle 1.53748e-014 -3.97569e-015
lhumerus 4.83226 31.9087 13.0515
lradius 64.4503
lwrist 7.49556
lhand -12.7764 39.8945
lfingers 7.12502
lthumb 13.3087 69.4495
rfemur -10.3915 2.02691 3.06104
rtibia 36.0591
rfoot 10.1426 -16.6692
rtoes -15.5583
lfemur -9.92434 -8.30562 1.0536
ltibia 29.557
lfoot 15.4501 -5.70571
ltoes -21.7967
68
root 7.68261 18.6097 -18.525 0.616265 -81.6242 2.16604
lowerback 1.27011 0.864122 -1.78927
upperback -2.12542 1.13769 1.94279
thorax -2.97233 0.624231 2.96031
lowerneck -21.1005 5.18599 -4.06841
upperneck 24.0714 6.85672 6.16986
head 10.8649 3.49281 3.94496
rclavicle 2.11333e-014 -1.23246e-014
rhumerus 2.11894 -39.4592 -4.1767
rradius 59.0082
rwrist -18.2874
rhand -24.2149 17.5706
rfingers 7.12502
rthumb 2.26979 -12.397
lclavicle 2.11333e-014 -1.23246e-014
lhumerus 2.1536 31.1686 14.2098
lradius 63.65
lwrist 9.0726
lhand -12.316 39.7808
lfingers 7.12502
lthumb 13.7525 69.3063
rfemur -11.0295 1.35341 3.52836
rtibia 36.2505
rfoot 7.63563 -16.1843
rtoes -15.2472
lfemur -10.3721 -8.03943 0.173854
ltibia 29.6559
lfoot 13.8418 -4.92824
ltoes -21.0887
69
root 7.69257 18.7546 -18.521 -1.45999 -81.7937 4.44211
lowerback 1.24206 0.69873 -2.20143
upperback -2.02489 0.910665 2.15297
thorax -2.84938 0.519597 3.42026
lowerneck -21.8103 5.39895 -4.79186
upperneck 24.5259 7.38822 6.34734
head 11.0924 3.68334 4.25382
rclavicle -1.02623e-014 -8.74653e-015
rhumerus 1.11659 -38.7444 -4.9499
rradius 57.7019
rwrist -17.6829
rhand -23.9349 17.1584
rfingers 7.12502
rthumb 2.54024 -12.8062
lclavicle -1.02623e-014 -8.74653e-015
lhumerus -1.43752 30.6934 14.5434
lradius 63.1267
lwrist 11.0056
lhand -12.2407 40.0545
lfingers 7.12502
lthumb 13.825 69.5751
rfemur -11.695 0.537077 3.85389
rtibia 36.6784
rfoot 5.05357 -15.684
rtoes -13.7042
lfemur -10.8464 -7.69505 -0.911111
ltibia 29.9425
lfoot 11.7181 -4.18787
ltoes -20.5049
70
root 7.70451 18.895 -18.5137 -2.44536 -81.9036 5.54577
lowerback 1.39711 1.86997 -1.56112
upperback -2.57351 2.45657 0.790644
thorax -3.5305 1.27095 1.57686
lowerneck -19.8181 4.67105 -2.46832
upperneck 23.8722 5.50989 6.28865
head 10.6884 3.02935 3.48045
rclavicle 4.34096e-014 5.56597e-015
rhumerus -7.14774 -36.9972 -1.51275
rradius 57.1019
rwrist -18.3082
rhand -22.383 17.6793
rfingers 7.12502
rthumb 4.03891 -12.2622
lclavicle 4.34096e-014 5.56597e-015
lhumerus 1.14876 28.3532 17.698
lradius 61.9947
lwrist 12.2445
lhand -12.0529 40.791
lfingers 7.12502
lthumb 14.006 70.2992
rfemur -12.3402 -0.525391 4.40294
rtibia 37.267
rfoot 2.65647 -15.3164
rtoes -11.6547
lfemur -11.3428 -7.03324 -1.88736
ltibia 30.3287
lfoot 9.31234 -3.641
ltoes -21.3342
71
root 7.71349 19.0293 -18.5096 -3.5651 -81.9573 6.81497
lowerback 1.60976 0.929295 -2.08529
upperback -2.22455 1.20751 1.66672
thorax -3.2714 0.668459 2.83314
lowerneck -21.3591 5.37309 -4.25234
upperneck 24.2476 7.18914 6.18577
head 10.9486 3.62655 4.04618
rclavicle 1.45486e-014 9.93923e-015
rhumerus -4.43788 -37.1051 -4.87686
rradius 55.6063
rwrist -18.7924
rhand -19.5011 19.6079
rfingers 7.12502
rthumb 6.82141 -10.2622
lclavicle 1.45486e-014 9.93923e-015
lhumerus -4.1957 30.272 17.3534
lradius 61.2775
lwrist 12.7668
lhand -11.8267 41.5616
lfingers 7.12502
lthumb 14.224 71.0546
rfemur -13.0057 -1.52238 4.99256
rtibia 37.9556
rfoot 0.854519 -14.8686
rtoes -11.3139
lfemur -11.9083 -6.30081 -2.90746
ltibia 30.7613
lfoot 7.49825 -3.26751
ltoes -21.3043
72
root 7.72318 19.1521 -18.5125 -5.01537 -82.0241 8.48432
lowerback 1.7153 0.654041 -2.56777
upperback -2.12545 0.831571 2.00409
thorax -3.2182 0.49477 3.47166
lowerneck -21.9131 5.54074 -4.89215
upperneck 24.366 7.76751 5.88
head 11.0454 3.78917 4.14958
rclavicle -1.47598e-014 -3.18055e-015
rhumerus -4.8037 -36.896 -6.15471
rradius 54.3983
rwrist -19.8137
rhand -17.1604 21.3201
rfingers 7.12502
rthumb 9.0806 -8.46448
lclavicle -1.47598e-014 -3.18055e-015
lhumerus -7.33953 30.8879 18.1057
lradius 60.561
lwrist 13.4399
lhand -11.7298 42.0299
lfingers 7.12502
lthumb 14.3174 71.5162
rfemur -13.816 -2.31766 5.58237
rtibia 38.7181
rfoot -0.358572 -14.14
rtoes -12.9808
lfemur -12.5501 -5.58778 -3.94418
ltibia 31.2447
lfoot 6.3889 -3.17019
ltoes -17.9075
73
root 7.73588 19.2615 -18.5165 -6.28498 -82.0889 9.87245
lowerback 1.88603 0.609517 -2.93939
upperback -2.09792 0.761213 2.17942
thorax -3.28977 0.471747 3.86623
lowerneck -22.2096 5.53015 -5.38723
upperneck 24.5679 7.9217 5.9614
head 11.139 3.81814 4.30372
rclavicle 2.37753e-014 -4.77083e-015
rhumerus -6.43347 -35.2891 -6.64732
rradius 54.0454
rwrist -19.2067
rhand -19.2555 17.7743
rfingers 7.12502
rthumb 7.05851 -12.088
lclavicle 2.37753e-014 -4.77083e-015
lhumerus -9.69278 30.9464 19.25
lradius 59.8139
lwrist 14.0646
lhand -11.5295 42.3013
lfingers 7.12502
lthumb 14.5104 71.7738
rfemur -14.6048 -3.09213 6.24672
rtibia 39.5352
rfoot -1.10499 -13.3224
rtoes -15.8979
lfemur -13.1055 -4.9051 -4.92688
ltibia 31.7764
lfoot 5.5583 -3.05748
ltoes -13.8564
74
root 7.75217 19.3568 -18.5174 -7.4926 -82.141 11.0571
lowerback 2.20475 0.493616 -3.20667
upperback -1.98892 0.593853 2.28994
thorax -3.34724 0.395976 4.1396
lowerneck -22.9964 5.71126 -5.66093
upperneck 25.2055 8.24951 6.21415
head 11.4783 3.95394 4.55896
rclavicle -3.67752e-015 4.77083e-015
rhumerus -8.18069 -32.8324 -7.08564
rradius 54.3394
rwrist -20.4322
rhand -20.6099 14.6007
rfingers 7.12502
rthumb 5.751 -15.3013
lclavicle -3.67752e-015 4.77083e-015
lhumerus -11.9435 31.2055 20.2712
lradius 59.0203
lwrist 14.3718
lhand -11.7284 42.4724
lfingers 7.12502
lthumb 14.3187 71.9586
rfemur -15.2284 -3.86447 6.93921
rtibia 40.3843
rfoot -1.61263 -12.6945
rtoes -17.7023
lfemur -13.5189 -4.29185 -5.89872
ltibia 32.3486
lfoot 4.85359 -3.04706
ltoes -11.6219
75
root 7.76969 19.4431 -18.515 -8.74734 -82.2681 12.2218
lowerback 2.4476 0.496889 -3.24606
upperback -1.74819 0.590414 2.16039
thorax -3.23329 0.388505 4.02583
lowerneck -23.7873 5.90132 -5.55907
upperneck 25.6156 8.43007 6.54426
head 11.759 4.07824 4.75531
rclavicle -3.02028e-014 -2.06736e-014
rhumerus -9.6858 -34.0824 -8.80799
rradius 53.5545
rwrist -19.0306
rhand -19.677 14.2434
rfingers 7.12502
rthumb 6.65166 -15.6322
lclavicle -3.02028e-014 -2.06736e-014
lhumerus -13.5064 31.3038 21.3988
lradius 58.3246
lwrist 14.7424
lhand -12.2446 42.5473
lfingers 7.12502
lthumb 13.8213 72.0681
rfemur -15.7478 -4.53305 7.60558
rtibia 41.2512
rfoot -2.10768 -11.9697
rtoes -16.956
lfemur -13.897 -3.36205 -6.93403
ltibia 32.9901
lfoot 4.42305 -3.89011
ltoes -12.7019
76
root 7.78448 19.5155 -18.509 -10.8639 -82.3493 14.3033
lowerback 2.89379 0.625403 -3.46925
upperback -1.82337 0.738681 2.03983
thorax -3.57932 0.475462 4.01594
lowerneck -23.6952 5.94383 -5.40039
upperneck 25.5318 8.38792 6.66527
head 11.7132 4.09552 4.75907
rclavicle 8.52289e-015 -7.15625e-015
rhumerus -11.8941 -33.9028 -9.52236
rradius 53.1207
rwrist -18.8443
rhand -19.2519 13.9195
rfingers 7.12502
rthumb 7.06199 -15.9426
lclavicle 8.52289e-015 -7.15625e-015
lhumerus -14.8918 31.2745 22.8994
lradius 57.4718
lwrist 14.6413
lhand -12.4822 42.0273
lfingers 7.12502
lthumb 13.5923 71.5636
rfemur -16.3285 -5.20472 8.12922
rtibia 42.1163
rfoot -2.35644 -11.2236
rtoes -16.364
lfemur -14.4441 -1.95818 -8.22775
ltibia 33.7206
lfoot 4.12362 -5.27497
ltoes -15.1073
77
root 7.79897 19.5664 -18.506 -12.4839 -82.3199 16.0606
lowerback 3.16849 0.765172 -3.71541
upperback -2.04267 0.902287 1.96538
thorax -3.98225 0.575023 4.06507
lowerneck -22.646 5.84434 -5.60981
upperneck 24.9999 8.30749 6.52112
head 11.3128 4.03579 4.64115
rclavicle 3.19422e-014 1.74931e-014
rhumerus -14.4419 -32.9284 -9.82489
rradius 53.0422
rwrist -19.3371
rhand -19.185 12.9575
rfingers 7.12502
rthumb 7.12659 -16.9025
lclavicle 3.19422e-014 1.74931e-014
lhumerus -16.2635 31.5215 24.6861
lradius 56.497
lwrist 14.0517
lhand -12.555 41.394
lfingers 7.12502
lthumb 13.5221 70.9349
rfemur -17.0781 -5.91351 8.73293
rtibia 42.9619
rfoot -2.51284 -10.6246
rtoes -17.2661
lfemur -15.2349 -0.49983 -9.47798
ltibia 34.5478
lfoot 3.90494 -6.37298
ltoes -15.5498
78
root 7.81127 19.6095 -18.5055 -13.9579 -82.2729 17.7369
lowerback 3.07664 0.467982 -4.00447
upperback -1.78711 0.503518 2.18223
thorax -3.63119 0.374026 4.48234
lowerneck -23.2591 6.0082 -6.10754
upperneck 24.8114 8.8901 6.10875
head 11.3129 4.20483 4.67099
rclavicle 1.55301e-014 -1.59028e-014
rhumerus -14.9092 -32.8467 -11.6881
rradius 52.7995
rwrist -19.5155
rhand -19.2821 12.2682
rfingers 7.12502
rthumb 7.03286 -17.5949
lclavicle 1.55301e-014 -1.59028e-014
lhumerus -18.9002 32.7915 25.6414
lradius 55.8911
lwrist 13.896
lhand -12.3746 41.3995
lfingers 7.12502
lthumb 13.696 70.9288
rfemur -17.8494 -6.70278 9.34104
rtibia 43.7983
rfoot -2.91869 -9.89182
rtoes -18.5853
lfemur -16.0248 0.584663 -10.6631
ltibia 35.4436
lfoot 3.81574 -7.03579
ltoes -14.7649
